<svg xmlns="http://www.w3.org/2000/svg" x="0px" y="0px" width="100" height="100" viewBox="0 0 48 48">
<path fill="#BBDEFB" d="M18.5 9A8.5 8.5 0 1 0 18.5 26A8.5 8.5 0 1 0 18.5 9Z"></path><path fill="#BBDEFB" d="M19 25A7 7 0 1 0 19 39A7 7 0 1 0 19 25Z"></path><path fill="#BBDEFB" d="M11 19A7 7 0 1 0 11 33 7 7 0 1 0 11 19zM38 19A6 6 0 1 0 38 31 6 6 0 1 0 38 19z"></path><path fill="#BBDEFB" d="M30 24A6 6 0 1 0 30 36A6 6 0 1 0 30 24Z"></path><path fill="#BBDEFB" d="M30.5 12A6.5 6.5 0 1 0 30.5 25A6.5 6.5 0 1 0 30.5 12Z"></path><path fill="#BBDEFB" d="M23 17A7 7 0 1 0 23 31A7 7 0 1 0 23 17Z"></path>
</svg>