<svg xmlns="http://www.w3.org/2000/svg" x="0px" y="0px" width="100" height="100" viewBox="0 0 50 50">
<path d="M 42.128906 22.257813 C 42.136719 22.066406 42.144531 21.878906 42.144531 21.695313 C 42.144531 14.445313 36.242188 8.546875 28.992188 8.546875 C 23.984375 8.546875 19.410156 11.441406 17.214844 15.878906 C 16.078125 15.128906 14.75 14.722656 13.355469 14.722656 C 9.652344 14.722656 6.609375 17.609375 6.363281 21.253906 C 2.582031 22.628906 0 26.257813 0 30.332031 C 0 35.660156 4.339844 40 9.671875 40 L 41.097656 40 C 46.007813 40 50 36.007813 50 31.097656 C 50 26.539063 46.554688 22.769531 42.128906 22.257813 Z"></path>
</svg>