<svg xmlns="http://www.w3.org/2000/svg" x="0px" y="0px" width="100" height="100" viewBox="0 0 24 24">
    <path d="M19.355,10.036C18.674,6.595,15.641,4,12,4C9.108,4,6.603,5.639,5.352,8.036C2.343,8.36,0,10.906,0,14c0,3.314,2.686,6,6,6 h13c2.761,0,5-2.239,5-5C24,12.36,21.948,10.221,19.355,10.036z M19,18H6c-2.206,0-4-1.794-4-4c0-2.048,1.533-3.757,3.565-3.975 L6.629,9.91l0.495-0.949C8.078,7.135,9.947,6,12,6c2.617,0,4.885,1.861,5.393,4.424l0.297,1.498l1.523,0.109 C20.776,12.142,22,13.447,22,15C22,16.654,20.654,18,19,18z"></path>
</svg>